<svg width="90" height="29" viewBox="0 0 90 29" fill="none" xmlns="http://www.w3.org/2000/svg">
<g clip-path="url(#clip0_0_2414)">
<rect opacity="0.1" width="90" height="29" rx="14.5" fill="#473BF0"/>
<path d="M16.8195 8.9C18.5745 8.9 19.9265 10.252 19.9265 11.955C19.9265 13.658 18.5745 15.01 16.8195 15.01H15.2205V18H13.4265V8.9H16.8195ZM16.8195 13.333C17.5865 13.333 18.1455 12.735 18.1455 11.955C18.1455 11.162 17.5865 10.577 16.8195 10.577H15.2205V13.333H16.8195ZM27.7115 18L25.8785 14.841H24.5135V18H22.7195V8.9H26.3595C28.0365 8.9 29.3885 10.252 29.3885 11.916C29.3885 13.06 28.6735 14.087 27.6335 14.568L29.6485 18H27.7115ZM24.5135 10.577V13.268H26.3595C27.0355 13.268 27.5945 12.67 27.5945 11.916C27.5945 11.162 27.0355 10.577 26.3595 10.577H24.5135ZM34.1239 16.284H37.9589V18H32.3299V8.9H37.8939V10.616H34.1239V12.553H37.5689V14.243H34.1239V16.284ZM49.7534 8.9V18H47.9724V12.098L45.4114 16.323H45.2034L42.6424 12.111V18H40.8484V8.9H42.6944L45.3074 13.203L47.9074 8.9H49.7534ZM53.074 8.9H54.868V18H53.074V8.9ZM61.5705 18.182C59.5815 18.182 58.0995 16.986 58.0995 15.023V8.9H59.8805V14.88C59.8805 15.764 60.3485 16.427 61.5705 16.427C62.7925 16.427 63.2605 15.764 63.2605 14.88V8.9H65.0545V15.023C65.0545 16.986 63.5725 18.182 61.5705 18.182ZM77.2007 8.9V18H75.4197V12.098L72.8587 16.323H72.6507L70.0897 12.111V18H68.2957V8.9H70.1417L72.7547 13.203L75.3547 8.9H77.2007Z" fill="#473BF0"/>
</g>
<defs>
<clipPath id="clip0_0_2414">
<rect width="90" height="29" fill="white"/>
</clipPath>
</defs>
</svg>
