<svg width="82" height="29" viewBox="0 0 82 29" fill="none" xmlns="http://www.w3.org/2000/svg">
<g clip-path="url(#clip0_0_2400)">
<rect opacity="0.1" width="82" height="29" rx="14.5" fill="#473BF0"/>
<path d="M25.9255 13.281C26.6535 13.697 27.1215 14.412 27.1215 15.361C27.1215 16.921 25.8605 18 24.2875 18H20.4265V8.9H24.0145C25.5485 8.9 26.7835 9.94 26.7835 11.461C26.7835 12.241 26.4585 12.852 25.9255 13.281ZM24.0145 10.577H22.2205V12.579H24.0145C24.5735 12.579 24.9895 12.15 24.9895 11.578C24.9895 11.006 24.5865 10.577 24.0145 10.577ZM24.2875 16.323C24.8985 16.323 25.3405 15.868 25.3405 15.244C25.3405 14.633 24.8985 14.178 24.2875 14.178H22.2205V16.323H24.2875ZM35.7726 18L35.2266 16.362H31.5996L31.0536 18H29.1166L32.3016 8.9H34.5246L37.7226 18H35.7726ZM32.1716 14.685H34.6676L33.4196 10.967L32.1716 14.685ZM43.1351 18.182C41.2761 18.182 40.0541 17.285 39.5601 15.933L41.0941 15.036C41.4191 15.881 42.0561 16.427 43.1871 16.427C44.2661 16.427 44.6431 15.972 44.6431 15.465C44.6431 14.789 44.0321 14.529 42.6801 14.139C41.2891 13.736 39.9371 13.151 39.9371 11.422C39.9371 9.706 41.3671 8.718 42.9271 8.718C44.4221 8.718 45.5661 9.485 46.1771 10.759L44.6691 11.63C44.3441 10.941 43.8501 10.46 42.9271 10.46C42.1731 10.46 41.7311 10.85 41.7311 11.37C41.7311 11.929 42.0821 12.228 43.4601 12.644C44.9031 13.099 46.4371 13.58 46.4371 15.439C46.4371 17.142 45.0721 18.182 43.1351 18.182ZM49.1687 8.9H50.9627V18H49.1687V8.9ZM58.5882 18.182C55.8322 18.182 53.8562 16.102 53.8562 13.45C53.8562 10.785 55.8322 8.718 58.5882 8.718C60.2522 8.718 61.7212 9.563 62.5012 10.863L60.9542 11.76C60.5122 10.954 59.6282 10.46 58.5882 10.46C56.8072 10.46 55.6372 11.695 55.6372 13.45C55.6372 15.192 56.8072 16.427 58.5882 16.427C59.6282 16.427 60.5252 15.933 60.9542 15.14L62.5012 16.037C61.7342 17.337 60.2652 18.182 58.5882 18.182Z" fill="#473BF0"/>
</g>
<defs>
<clipPath id="clip0_0_2400">
<rect width="82" height="29" fill="white"/>
</clipPath>
</defs>
</svg>
