<svg width="100" height="29" viewBox="0 0 100 29" fill="none" xmlns="http://www.w3.org/2000/svg">
<g clip-path="url(#clip0_0_2407)">
<rect opacity="0.1" width="100" height="29" rx="14.5" fill="#473BF0"/>
<path d="M14.9911 18.182C13.1321 18.182 11.9101 17.285 11.4161 15.933L12.9501 15.036C13.2751 15.881 13.9121 16.427 15.0431 16.427C16.1221 16.427 16.4991 15.972 16.4991 15.465C16.4991 14.789 15.8881 14.529 14.5361 14.139C13.1451 13.736 11.7931 13.151 11.7931 11.422C11.7931 9.706 13.2231 8.718 14.7831 8.718C16.2781 8.718 17.4221 9.485 18.0331 10.759L16.5251 11.63C16.2001 10.941 15.7061 10.46 14.7831 10.46C14.0291 10.46 13.5871 10.85 13.5871 11.37C13.5871 11.929 13.9381 12.228 15.3161 12.644C16.7591 13.099 18.2931 13.58 18.2931 15.439C18.2931 17.142 16.9281 18.182 14.9911 18.182ZM26.7771 8.9V10.616H24.3201V18H22.5261V10.616H20.0821V8.9H26.7771ZM34.5934 18L34.0474 16.362H30.4204L29.8744 18H27.9374L31.1224 8.9H33.3454L36.5434 18H34.5934ZM30.9924 14.685H33.4884L32.2404 10.967L30.9924 14.685ZM44.317 8.9H46.111V18H44.746L40.846 12.436V18H39.052V8.9H40.417L44.317 14.451V8.9ZM53.0381 8.9C55.5471 8.9 57.4191 10.889 57.4191 13.45C57.4191 16.011 55.5471 18 53.0381 18H49.4241V8.9H53.0381ZM53.0381 16.284C54.6111 16.284 55.7031 15.127 55.7031 13.45C55.7031 11.773 54.6111 10.616 53.0381 10.616H51.2181V16.284H53.0381ZM65.8366 18L65.2906 16.362H61.6636L61.1176 18H59.1806L62.3656 8.9H64.5886L67.7866 18H65.8366ZM62.2356 14.685H64.7316L63.4836 10.967L62.2356 14.685ZM75.2872 18L73.4542 14.841H72.0892V18H70.2952V8.9H73.9352C75.6122 8.9 76.9642 10.252 76.9642 11.916C76.9642 13.06 76.2492 14.087 75.2092 14.568L77.2242 18H75.2872ZM72.0892 10.577V13.268H73.9352C74.6112 13.268 75.1702 12.67 75.1702 11.916C75.1702 11.162 74.6112 10.577 73.9352 10.577H72.0892ZM83.5195 8.9C86.0285 8.9 87.9005 10.889 87.9005 13.45C87.9005 16.011 86.0285 18 83.5195 18H79.9055V8.9H83.5195ZM83.5195 16.284C85.0925 16.284 86.1845 15.127 86.1845 13.45C86.1845 11.773 85.0925 10.616 83.5195 10.616H81.6995V16.284H83.5195Z" fill="#473BF0"/>
</g>
<defs>
<clipPath id="clip0_0_2407">
<rect width="100" height="29" fill="white"/>
</clipPath>
</defs>
</svg>
